<svg xmlns="http://www.w3.org/2000/svg" width="2048" height="2048">
  <path d="M 263.4375,0 C 242.18803,0.08256403 220.5823,3.3364974 199.25,10.0625 L 34.96875,61.84375 C 8.6325834,70.147454 -5.991262,98.226507 2.3125,124.5625 c 8.303763,26.33598 36.41383,40.95995 62.75,32.65625 L 229.31245,105.4375 c 61.0999,-19.264602 126.26655,14.65055 145.53125,75.75 L 817.25,1584.1562 c 14.58693,-7.6624 30.04452,-14.1208 46.3125,-19.25 16.28816,-5.1356 32.66704,-8.7236 49.03125,-10.8124 L 470.21875,151.09375 C 441.07255,58.654449 355.51852,-0.35777746 263.4375,0 z M 1322.5312,67.59375 584.375,300.34375 705.25,683.71875 1443.4375,451 z m 266.0313,404.75 L 724.5,744.78125 853.8125,1154.875 1717.875,882.4375 z m 310.6563,420 -1026.18755,323.56245 106.5,337.75 c 68.49175,7.8607 132.05695,40.9363 177.81255,92.5 L 2048,1364.2188 z M 1701,1544.375 c -4.9189,0.019 -9.9057,0.7556 -14.8438,2.3125 l -490.625,154.7187 c 7.6619,14.5859 14.1212,30.0772 19.25,46.3438 5.1327,16.2788 8.6921,32.6765 10.7813,49.0312 l 490.6563,-154.7187 c 26.336,-8.3036 40.9599,-36.3828 32.6562,-62.7187 -6.7468,-21.398 -26.5599,-35.0516 -47.875,-34.9688 z m -754.03125,71.5 c -21.24946,0.083 -42.82396,3.3365 -64.15625,10.0625 -113.77224,35.872 -176.93475,157.1973 -141.0625,270.9687 35.87224,113.7715 157.19652,176.9033 270.9688,141.0313 113.7722,-35.872 176.9034,-157.1661 141.0312,-270.9375 -29.1462,-92.4393 -114.7003,-151.4828 -206.78125,-151.125 z"/>
</svg>
