<svg xmlns="http://www.w3.org/2000/svg" width="2048" height="2048">
  <path d="m 41.868615,81.174096 c -23.45279,8.9872 -36.0027598,36.176104 -28.65087,59.505204 7.54907,23.9544 38.591,39.5428 62.23375,31.0679 L 303.20168,99.937796 c 40.56336,-12.7896 82.61992,9.103604 95.40948,49.667004 l -0.19871,0.06 476.28541,1510.5843 c 0.3221,-0.1154 0.6688,-0.2041 0.9936,-0.3134 1.7536,-0.6022 3.5251,-1.3299 5.3032,-1.8906 3.4881,-1.0998 6.9601,-1.9428 10.4596,-2.8609 3.1295,-0.8231 6.1477,-1.5968 9.3298,-2.2862 0.6763,-0.1433 1.3746,-0.2874 2.05,-0.4281 2.3109,-0.4774 4.6711,-0.9302 7.0076,-1.3355 3.0575,-0.5308 6.1274,-0.9676 9.1829,-1.3659 3.0632,-0.3988 6.2073,-0.6988 9.3084,-0.9685 3.0768,-0.2681 6.1043,-0.5701 9.1722,-0.7071 3.1364,-0.1367 6.3901,-0.1734 9.5589,-0.1734 8.5928,-0.01 17.109,0.3521 25.5489,1.3397 L 490.62549,120.5929 C 462.13793,30.241996 364.54063,-20.564004 274.18974,7.9234962 L 41.868615,81.174096 z M 599.65205,333.3311 728.18024,740.27764 1465.6229,507.54435 1337.356,100.7339 599.65205,333.3311 z M 740.01239,778.49742 876.29986,1210.7459 1741.2569,938.24445 1604.9068,505.79723 740.01239,778.49742 z m 148.38097,470.60428 129.39464,410.3877 c 36.6975,12.4598 69.8312,34.441 95.5705,64.0367 L 2036.8797,1432.341 1880.4781,936.29862 888.39336,1249.1017 z m 4.6322,447.1032 c -94.83112,29.9002 -147.46808,131.0149 -117.56794,225.8461 29.90014,94.8311 131.01484,147.4681 225.84588,117.5679 94.8312,-29.9002 147.4682,-131.0148 117.568,-225.846 -29.9001,-94.8311 -131.01474,-147.4681 -225.84594,-117.568 z m 244.68534,61.5934 c 3.9693,6.8862 7.4316,14.1412 10.8459,21.9253 3.4143,7.7842 6.1878,14.7744 8.4719,22.0185 5.0832,16.1221 8.1098,32.4289 9.422,48.5932 l 549.4395,-173.456 c 22.3812,-6.7079 37.6666,-31.5183 33.7104,-54.5457 -3.9563,-23.0275 -26.6256,-41.1095 -49.9622,-39.9625 -4.3839,0.1734 -8.8457,1.0122 -13.0216,2.3578 l -548.9059,173.0694 z"/>
</svg>
